# xmcd
#
# Track frame offsets:
#	150
#	16853
#	31366
#	47657
#	62005
#	77544
#	95527
#	110216
#	127317
#	141377
#	155396
#	169022
#	183752
#	197338
#	210562
#	225058
#	242103
#	256330
#
# Disc length: 3589 seconds
#
# Revision: 1
# Processed by: cddbd v1.5.2PL0 Copyright (c) Steve Scherf et al.
# Submitted via: audiograbber 1.82.02
#
DISCID=e90e0312
DTITLE=Various Artist - Country Radio - Novermber 2015
DYEAR=2015
DGENRE=Country
TTITLE0=Brad Paisley - Country Nation
TTITLE1=Ashley Gearing - Train Track
TTITLE2=Aaron Watson - Getaway Truck
TTITLE3=Zac Brown Band - Beautiful Drug
TTITLE4=Rascal Flatts - I Like The Sound Of That
TTITLE5=Alabama - Wasn't Through Lovin' You Yet
TTITLE6=Carrie Underwood - Smoke Break
TTITLE7=Brantley Gilbert - Stone Cold Sober
TTITLE8=Michael Ray - Real Men Love Jesus
TTITLE9=Amanda Watkins (Ft. Jamey Johnson) - If I Was Over You
TTITLE10=Mo Pitney - Boy and A Girl Thing
TTITLE11=Levi Hart - My Kind Of Night
TTITLE12=Dustin Lynch - Mind Reader
TTITLE13=Dallas Smith - Kids With Cars
TTITLE14=Toby Keith - Rum Is The Reason
TTITLE15=Sam Hunt - Break Up In A Small Town
TTITLE16=Lauren Alaina - Next Boyfriend
TTITLE17=Joe Nichols - Freaks Like Me
EXTD=
EXTT0=
EXTT1=
EXTT2=
EXTT3=
EXTT4=
EXTT5=
EXTT6=
EXTT7=
EXTT8=
EXTT9=
EXTT10=
EXTT11=
EXTT12=
EXTT13=
EXTT14=
EXTT15=
EXTT16=
EXTT17=
PLAYORDER=
